<?xml version="1.0" standalone="no"?>
<!DOCTYPE svg PUBLIC "-//W3C//DTD SVG 20010904//EN"
 "http://www.w3.org/TR/2001/REC-SVG-20010904/DTD/svg10.dtd">
<svg version="1.0" xmlns="http://www.w3.org/2000/svg"
 width="1200.000000pt" height="342.000000pt" viewBox="0 0 1200.000000 342.000000"
 preserveAspectRatio="xMidYMid meet">

<g transform="translate(0.000000,342.000000) scale(0.100000,-0.100000)"
fill="#000000" stroke="none">
<path d="M1590 3409 c-289 -21 -565 -117 -820 -286 -160 -106 -357 -303 -463
-463 -125 -190 -208 -389 -259 -620 -19 -92 -22 -133 -22 -330 0 -197 3 -238
22 -330 80 -369 240 -655 513 -914 442 -421 1093 -567 1684 -379 510 161 929
575 1099 1084 64 192 81 306 81 539 0 174 -4 222 -23 318 -107 533 -440 970
-917 1206 -219 108 -397 157 -645 176 -74 5 -137 9 -140 9 -3 -1 -52 -5 -110
-10z m915 -1053 c91 -31 183 -84 205 -118 13 -19 15 -98 18 -513 2 -269 0
-500 -3 -512 -7 -31 -22 -29 -104 12 -152 76 -315 93 -516 55 -58 -12 -232
-63 -388 -115 -331 -110 -402 -126 -557 -127 -130 -1 -227 20 -329 72 -109 55
-101 8 -101 584 0 351 3 505 11 513 8 8 36 -2 103 -37 125 -65 217 -85 355
-77 126 7 222 32 452 118 244 91 323 118 444 150 97 26 123 29 220 26 87 -3
127 -10 190 -31z"/>
<path d="M4100 1705 l0 -875 368 0 c418 0 437 3 590 75 256 121 421 319 488
584 29 114 34 276 11 386 -33 156 -116 318 -227 438 -64 70 -204 164 -307 207
-133 55 -173 60 -565 60 l-358 0 0 -875z m733 490 c86 -22 149 -58 221 -126
112 -104 164 -238 153 -394 -10 -139 -67 -258 -170 -351 -108 -99 -193 -124
-419 -124 l-158 0 0 505 0 505 158 0 c108 0 176 -5 215 -15z"/>
<path d="M6816 2563 c-218 -46 -405 -191 -501 -387 -81 -165 -79 -140 -83
-778 l-3 -568 180 0 181 0 2 183 3 182 373 3 372 2 0 -108 c0 -60 3 -143 6
-185 l7 -77 178 0 179 0 0 518 c0 289 -5 548 -10 587 -37 259 -189 466 -423
575 -143 67 -309 86 -461 53z m308 -386 c161 -74 225 -209 226 -479 l0 -118
-380 0 -380 0 0 118 c0 142 13 230 44 298 44 96 133 172 235 201 70 20 188 10
255 -20z"/>
<path d="M8957 2564 c-288 -62 -523 -300 -575 -584 -12 -65 -26 -1009 -16
-1093 l7 -57 173 0 c166 0 173 1 179 21 4 11 4 199 0 417 -11 628 2 720 120
831 83 79 149 105 260 106 82 0 97 -3 156 -32 80 -40 150 -111 187 -191 25
-54 27 -69 34 -277 5 -121 5 -348 2 -505 -4 -158 -3 -305 1 -328 l7 -42 174 0
174 0 0 568 0 567 -34 97 c-42 124 -84 194 -169 284 -177 189 -434 271 -680
218z"/>
<path d="M11099 2565 c-240 -48 -445 -215 -538 -439 -56 -136 -61 -193 -61
-772 l0 -524 180 0 180 0 0 185 0 185 375 0 375 0 0 -72 c0 -40 3 -124 7 -185
l6 -113 179 0 178 0 0 514 c0 304 -4 545 -10 590 -60 425 -458 713 -871 631z
m252 -375 c116 -36 209 -129 245 -243 10 -34 18 -106 21 -209 l6 -158 -383 0
-382 0 5 148 c6 180 17 234 67 311 91 141 260 202 421 151z"/>
</g>
</svg>
