<?xml version="1.0" encoding="UTF-8"?>
<svg id="Layer_1" data-name="Layer 1" xmlns="http://www.w3.org/2000/svg" viewBox="0 0 950 950">
  <defs>
    <style>
      .cls-1 {
        fill: #fff;
      }

      .cls-1, .cls-2, .cls-3 {
        fill-rule: evenodd;
      }

      .cls-4, .cls-2 {
        fill: #00acd8;
      }
    </style>
  </defs>
  <rect class="cls-4" width="950" height="475"/>
  <g>
    <path class="cls-2" d="m121.96,806.09c58.19,0,105.64-47.46,105.64-105.64s-47.45-105.65-105.64-105.65-105.65,47.46-105.65,105.65,47.46,105.64,105.65,105.64Z"/>
    <path class="cls-1" d="m61.07,724.16c1.34,17.3,12.15,30.61,32.11,31.55,19.2.9,38.38,1.2,57.56,0,17.63-1.09,30.78-14.25,32.11-31.55.69-8.88.99-17.74.9-26.61h0c-4.44-23.95-24.53-24.81-26.4-24.84h-67.67c-2.37,0-4.3-1.94-4.3-4.31h0c0-2.38,1.93-4.31,4.3-4.31h67.73c-.62-16.05-18.36-19.05-26.81-19.57l-4.37-.08h-.02c-11.02-.16-22.03.11-33.02.97-20.36,1.59-30.78,14.25-32.11,31.55-1.22,15.74-1.22,31.46,0,47.19h0Zm101.64-9.1v5.73c0,2.15-1.76,3.9-3.9,3.9h0c-2.15,0-3.9-1.75-3.9-3.9v-5.74c-1.72-1.15-2.83-3.04-2.83-5.18,0-3.51,3.01-6.36,6.74-6.36s6.74,2.85,6.74,6.36c0,2.14-1.12,4.03-2.83,5.18Z"/>
  </g>
  <path class="cls-3" d="m760.54,690.87l-.06,19.08s-6.52,12.82-29.05,15.96c-22.53,3.14-22.54-10.89-20.92-14.51,1.63-3.62,6.93-8.62,25.57-11.67,19.91-3.25,24.46-8.86,24.46-8.86h0Zm26.55-18.37c0-29.51-28.39-43.27-53.79-40.83-23.64,2.28-43.5,13.31-49.61,37.99l24.48,6.03c7.75-22.12,36.73-28.59,49.01-12.79,3.29,4.29,1.92,8.77-2.92,11.27-7.2,3.72-20.95,2.63-34.97,6.47-59.29,16.26-40.63,70.46,8.49,69.07,15.72-.44,27.05-7.62,34.73-14.81l.26,12.08h24.32v-74.48h0Zm-463.99-13.45c-17.83,0-32.29,14.52-32.29,32.45s14.46,32.45,32.29,32.45,32.3-14.52,32.3-32.45-14.46-32.45-32.3-32.45h0Zm63.28-23.89v109.59c0,38.33-26.69,61.34-60.58,61.34-23.03,0-39.89-5.42-56.26-23.31l20.1-18.07c9.72,11.44,21.39,14.2,35.72,14.2,17.23,0,30.03-13.87,30.03-30.86v-11.24c-9.97,8.69-22.88,13.94-36.99,13.94-31.54,0-57.12-26.23-57.12-58.57s25.58-58.57,57.12-58.57c14.11,0,27.02,5.25,36.99,13.94v-12.39h30.98Zm546.43-1.82l-33.2-.05-32.83,71.95-37.85-71.98h-33.3l54.67,102.54-28.9,59.52h33.31l78.1-161.97h0Zm-324.32,25.71c17.83,0,32.28,14.52,32.28,32.45s-14.45,32.45-32.28,32.45-32.3-14.52-32.3-32.45,14.46-32.45,32.3-32.45h0Zm-63.29-23.89h30.98v12.39c9.97-8.69,22.88-13.94,36.99-13.94,31.54,0,57.12,26.23,57.12,58.57s-25.58,58.57-57.12,58.57c-14.1,0-27.02-5.25-36.99-13.94v58.49h-30.98v-160.15h0Zm-82.62,23c19.43,0,35.17,15.24,35.17,34.04s-15.74,34.05-35.17,34.05-35.16-15.24-35.16-34.05,15.74-34.04,35.16-34.04h0Zm0-26.7c-34.65,0-62.74,27.2-62.74,60.74s28.09,60.74,62.74,60.74,62.74-27.19,62.74-60.74-28.09-60.74-62.74-60.74Z"/>
  <path class="cls-1" d="m39.89,250.51c1.34,17.3,12.15,30.61,32.11,31.55,19.2.9,38.38,1.2,57.56,0,17.63-1.09,30.78-14.25,32.11-31.55.69-8.88.99-17.74.9-26.61h0c-4.44-23.95-24.53-24.81-26.4-24.84h-67.67c-2.37,0-4.3-1.94-4.3-4.31h0c0-2.38,1.93-4.31,4.3-4.31h67.73c-.62-16.05-18.36-19.05-26.81-19.57l-4.37-.08h-.02c-11.02-.16-22.03.11-33.02.97-20.36,1.59-30.78,14.25-32.11,31.55-1.22,15.74-1.22,31.46,0,47.19h0Zm101.64-9.1v5.73c0,2.15-1.76,3.9-3.9,3.9h0c-2.15,0-3.9-1.75-3.9-3.9v-5.74c-1.72-1.15-2.83-3.04-2.83-5.18,0-3.51,3.01-6.36,6.74-6.36s6.74,2.85,6.74,6.36c0,2.14-1.12,4.03-2.83,5.18Z"/>
  <path class="cls-1" d="m739.36,217.22l-.06,19.08s-6.52,12.82-29.05,15.96c-22.53,3.14-22.54-10.89-20.92-14.51,1.63-3.62,6.93-8.62,25.57-11.67,19.91-3.25,24.46-8.86,24.46-8.86h0Zm26.55-18.37c0-29.51-28.39-43.27-53.79-40.83-23.64,2.28-43.5,13.31-49.61,37.99l24.48,6.03c7.75-22.12,36.73-28.59,49.01-12.79,3.29,4.29,1.92,8.77-2.92,11.27-7.2,3.72-20.95,2.63-34.97,6.47-59.29,16.26-40.63,70.46,8.49,69.07,15.72-.44,27.05-7.62,34.73-14.81l.26,12.08h24.32v-74.48h0Zm-463.99-13.45c-17.83,0-32.29,14.52-32.29,32.45s14.46,32.45,32.29,32.45,32.3-14.52,32.3-32.45-14.46-32.45-32.3-32.45h0Zm63.28-23.89v109.59c0,38.33-26.69,61.34-60.58,61.34-23.03,0-39.89-5.42-56.26-23.31l20.1-18.07c9.72,11.44,21.39,14.2,35.72,14.2,17.23,0,30.03-13.87,30.03-30.86v-11.24c-9.97,8.69-22.88,13.94-36.99,13.94-31.54,0-57.12-26.23-57.12-58.57s25.58-58.57,57.12-58.57c14.11,0,27.02,5.25,36.99,13.94v-12.39h30.98Zm546.43-1.82l-33.2-.05-32.83,71.95-37.85-71.98h-33.3l54.67,102.54-28.9,59.52h33.31l78.1-161.97h0Zm-324.32,25.71c17.83,0,32.28,14.52,32.28,32.45s-14.45,32.45-32.28,32.45-32.3-14.52-32.3-32.45,14.46-32.45,32.3-32.45h0Zm-63.29-23.89h30.98v12.39c9.97-8.69,22.88-13.94,36.99-13.94,31.54,0,57.12,26.23,57.12,58.57s-25.58,58.57-57.12,58.57c-14.1,0-27.02-5.25-36.99-13.94v58.49h-30.98v-160.15h0Zm-82.62,23c19.43,0,35.17,15.24,35.17,34.04s-15.74,34.05-35.17,34.05-35.16-15.24-35.16-34.05,15.74-34.04,35.16-34.04h0Zm0-26.7c-34.65,0-62.74,27.2-62.74,60.74s28.09,60.74,62.74,60.74,62.74-27.19,62.74-60.74-28.09-60.74-62.74-60.74Z"/>
</svg>