<svg
    width="800"
    height="800"
    viewBox="0 0 800 800"
    fill="none"
    xmlns="http://www.w3.org/2000/svg"
>
    <path
        d="M382 138C397.464 138 412.364 144.844 422.364 156.5C432.364 168.156 437 183.693 437 200C437 216.307 432.364 231.844 422.364 243.5C412.364 255.156 397.464 262 382 262C366.536 262 351.636 255.156 341.636 243.5C331.636 231.844 327 216.307 327 200C327 183.693 331.636 168.156 341.636 156.5C351.636 144.844 366.536 138 382 138ZM382 318C441.6 318 487 272.6 487 213C487 153.4 441.6 108 382 108C322.4 108 277 153.4 277 213C277 272.6 322.4 318 382 318ZM357 426.5V533C357 552.152 372.8 568 392 568C411.2 568 427 552.152 427 533V426.5C436.2 432.948 444.671 440.941 452.253 450.123C484.868 491.756 497 541.6 497 586.5V640H267V586.5C267 541.6 279.132 491.756 311.747 450.123C319.329 440.941 327.8 432.948 337 426.5ZM392 498C367.6 498 347 517.6 347 542V586.5V610H437V586.5C437 561.4 416.4 542 392 542C372.8 542 357 526.2 357 507V426.5V360H327V426.5C327 451.6 346.6 470.5 372 470.5H412C437.4 470.5 457 451.6 457 426.5V360H427V426.5C427 507 392 498 392 498Z"
        fill="#000"
    />
    <text
        x="50%"
        y="90%"
        text-anchor="middle"
        fill="black"
        font-family="Arial, Helvetica, sans-serif"
        font-size="36"
        >
        mnpasshop
    </text>
</svg>
